<svg width="682" height="771" viewBox="0 0 682 771" fill="none" xmlns="http://www.w3.org/2000/svg">
<g clip-path="url(#clip0_3_6)">
<path d="M341.17 0C352.77 19.89 362.97 37.2 372.99 54.61C400.71 102.79 428.15 151.12 456.21 199.1C461.16 207.56 460.89 211.96 451.62 216.28C436.76 223.2 422.23 230.89 407.83 238.74C400.38 242.8 396.12 241.76 391.82 233.99C377.72 208.54 362.92 183.48 348.31 158.31C346.33 154.9 343.96 151.71 340.45 146.43C331.69 161.33 323.94 174.31 316.39 187.41C295.17 224.26 274.31 261.33 252.68 297.93C247.83 306.13 249.61 309.3 257.41 313.15C280.49 324.52 303.57 335.97 325.96 348.62C336.65 354.66 345.01 354.42 355.76 348.64C393.43 328.39 431.67 309.2 469.71 289.62C476.34 286.21 483.39 283.45 489.59 279.39C497.43 274.25 501.08 277.07 505.22 284.32C534.6 335.84 564.35 387.15 593.97 438.53C622.08 487.28 649.96 536.17 678.45 584.69C683.7 593.63 682.72 597.66 673.36 602.44C565.77 657.42 458.36 712.74 350.98 768.12C344.05 771.69 338.11 771.93 331.07 768.29C266.83 735.02 202.53 701.87 138.05 669.05C129.65 664.77 128.34 660.67 133.29 652.78C142 638.88 150.49 624.78 158.02 610.22C162.45 601.65 166.9 601.3 174.82 605.41C226.77 632.43 278.97 658.95 330.92 685.97C338.01 689.66 343.68 689.6 350.77 685.92C424.57 647.59 498.48 609.49 572.49 571.57C580.71 567.36 582.11 563.46 577.11 555.24C557.56 523.07 538.47 490.61 519.65 457.99C508.16 438.07 497.47 417.69 486.46 397.49C471.7 370.41 470.94 370.3 444.59 384.4C425.27 394.74 405.7 404.62 386.21 414.64C373.7 421.08 360.87 426.95 348.7 433.97C341.4 438.19 335.38 436.75 328.75 433.3C306.32 421.62 283.75 410.19 261.35 398.45C247.62 391.26 233.91 383.99 220.55 376.14C213.61 372.06 209.24 372.63 205.32 379.95C193.54 401.96 181.88 424.06 169.39 445.67C145.14 487.61 120.3 529.2 95.8101 571C86.1901 587.41 76.5401 603.82 67.4901 620.55C63.5001 627.92 59.2101 628.66 52.2501 624.89C37.8201 617.08 23.3301 609.31 8.43008 602.48C-1.01992 598.15 -2.18992 593.88 3.15008 584.8C33.2001 533.66 62.6901 482.19 92.3001 430.8C172.66 291.33 252.97 151.84 333.31 12.37C335.29 8.94 337.56 5.67 341.17 0Z" fill="black"/>
</g>
<defs>
<clipPath id="clip0_3_6">
<rect width="681.64" height="770.92" fill="white"/>
</clipPath>
</defs>
</svg>
